<svg id="Layer_1" data-name="Layer 1" xmlns="http://www.w3.org/2000/svg" viewBox="0 0 500 500"><defs><style>.cls-1{fill:#ffd600;}.cls-2,.cls-3{fill:#570b03;}.cls-3{opacity:0;}</style></defs><rect class="cls-1" y="2" width="500" height="500"/><path class="cls-2" d="M406.67,221.59C406.67,131.5,334.75,58,246.24,58c-88,0-159.93,73.5-159.93,163.59,0,90.53,71.92,164.09,159.93,164.09a157.53,157.53,0,0,0,53.81-9.33L401.12,470.6,401,381.52,363.2,333.89A165.88,165.88,0,0,0,406.67,221.59ZM246.55,312.88c-47.06,0-85.17-40.95-85.17-91.48s38.11-91.48,85.17-91.48,85.17,41,85.17,91.48S293.62,312.88,246.55,312.88Z"/><rect class="cls-3" x="179.24" y="135.16" width="215.57" height="215.57"/><path class="cls-2" d="M269.06,234A35.93,35.93,0,1,0,233.14,198,35.93,35.93,0,0,0,269.06,234Z"/><path class="cls-2" d="M323,323.79a9,9,0,0,0,9-9,62.88,62.88,0,0,0-125.75,0,9,9,0,0,0,9,9"/><polygon class="cls-1" points="283 266.19 265.88 266.19 268.47 280.46 280.4 280.46 283 266.19"/><polygon class="cls-1" points="264.45 321.82 274.44 331.81 284.42 321.82 280.3 284.74 268.57 284.74 264.45 321.82"/></svg>