<svg xmlns="http://www.w3.org/2000/svg" width="34.181" height="34.906" viewBox="0 0 34.181 34.906">
  <g id="check-svgrepo-com_2_" data-name="check-svgrepo-com (2)" transform="translate(-5.082 0)">
    <g id="Groupe_31" data-name="Groupe 31" transform="translate(5.082 0)">
      <path id="Tracé_115" data-name="Tracé 115" d="M38.852,19.489l-.656-.9a2.154,2.154,0,0,1-.021-2.5l.642-.906a2.147,2.147,0,0,0-.742-3.132l-.977-.528a2.151,2.151,0,0,1-1.106-2.247l.185-1.1a2.142,2.142,0,0,0-2.026-2.5l-1.113-.05A2.143,2.143,0,0,1,31.07,4.081l-.307-1.07a2.139,2.139,0,0,0-2.91-1.37l-1.02.442a2.141,2.141,0,0,1-2.447-.542L23.643.714a2.147,2.147,0,0,0-3.217.021l-.728.842a2.149,2.149,0,0,1-2.433.578l-1.027-.421a2.147,2.147,0,0,0-2.889,1.42l-.292,1.07a2.113,2.113,0,0,1-1.933,1.584l-1.113.064A2.138,2.138,0,0,0,8.028,8.4l.2,1.091a2.142,2.142,0,0,1-1.07,2.261l-.97.542A2.142,2.142,0,0,0,5.5,15.43l.656.9a2.154,2.154,0,0,1,.021,2.5l-.642.906a2.147,2.147,0,0,0,.742,3.132l.977.528a2.151,2.151,0,0,1,1.106,2.247l-.193,1.091a2.142,2.142,0,0,0,2.026,2.5l1.113.05a2.143,2.143,0,0,1,1.969,1.548l.307,1.07a2.139,2.139,0,0,0,2.91,1.37l1.02-.442a2.15,2.15,0,0,1,2.447.535l.742.827a2.147,2.147,0,0,0,3.217-.021l.728-.842a2.149,2.149,0,0,1,2.433-.578l1.027.421a2.147,2.147,0,0,0,2.889-1.42l.292-1.07a2.157,2.157,0,0,1,1.947-1.577l1.113-.064a2.138,2.138,0,0,0,1.983-2.525l-.2-1.091a2.142,2.142,0,0,1,1.07-2.261l.97-.542A2.141,2.141,0,0,0,38.852,19.489ZM22.174,28.727A11.264,11.264,0,1,1,33.438,17.464,11.264,11.264,0,0,1,22.174,28.727Z" transform="translate(-5.082 0)" fill="#560a02"/>
      <path id="Tracé_116" data-name="Tracé 116" d="M177.481,193l-1-1.006a1.531,1.531,0,0,0-2.161-.007h0a1.531,1.531,0,0,0-.007,2.161l1,1.006,1.113,1.113a1.488,1.488,0,0,0,2.1.007l1.113-1.106,3.881-3.859a1.531,1.531,0,0,0,.007-2.161h0a1.531,1.531,0,0,0-2.161-.007Z" transform="translate(-161.83 -175.239)" fill="#560a02"/>
    </g>
  </g>
</svg>
