<svg xmlns="http://www.w3.org/2000/svg" width="34.161" height="40.132" viewBox="0 0 34.161 40.132">
  <g id="chronometer-svgrepo-com_1_" data-name="chronometer-svgrepo-com (1)" transform="translate(-2.352)">
    <g id="Groupe_30" data-name="Groupe 30" transform="translate(2.352)">
      <g id="Groupe_28" data-name="Groupe 28" transform="translate(13.318 19.859)">
        <path id="Tracé_109" data-name="Tracé 109" d="M19.513,20.253a3.44,3.44,0,1,0-2.123,2.079l4.354,3.546a.9.9,0,0,0,1.265-1.252Z" transform="translate(-12.841 -15.641)" fill="#ffd600"/>
      </g>
      <g id="Groupe_29" data-name="Groupe 29">
        <path id="Tracé_110" data-name="Tracé 110" d="M32.7,11.486l.439.437a1.978,1.978,0,0,0,2.8-2.8L33.2,6.387a1.978,1.978,0,1,0-2.8,2.8l.438.437-.874.872A16.725,16.725,0,0,0,21.13,6.661v-2.7h2.061a1.978,1.978,0,0,0,0-3.956H15.114a1.978,1.978,0,0,0,0,3.956h2.059v2.7a16.829,16.829,0,1,0,14.661,5.688ZM19.152,36.174A12.843,12.843,0,1,1,32,23.332,12.857,12.857,0,0,1,19.152,36.174Z" transform="translate(-2.352)" fill="#ffd600"/>
      </g>
    </g>
  </g>
</svg>
