<svg xmlns="http://www.w3.org/2000/svg" xmlns:xlink="http://www.w3.org/1999/xlink" width="476.464" height="945.194" viewBox="0 0 476.464 945.194">
  <defs>
    <filter id="delete-svgrepo-com" x="0" y="511.741" width="412.637" height="433.453" filterUnits="userSpaceOnUse">
      <feOffset input="SourceAlpha"/>
      <feGaussianBlur stdDeviation="3" result="blur"/>
      <feFlood flood-opacity="0.251"/>
      <feComposite operator="in" in2="blur"/>
      <feComposite in="SourceGraphic"/>
    </filter>
    <filter id="delete-svgrepo-com-2" x="36.173" y="0" width="440.29" height="440.29" filterUnits="userSpaceOnUse">
      <feOffset input="SourceAlpha"/>
      <feGaussianBlur stdDeviation="3" result="blur-2"/>
      <feFlood flood-opacity="0.251"/>
      <feComposite operator="in" in2="blur-2"/>
      <feComposite in="SourceGraphic"/>
    </filter>
  </defs>
  <g id="Composant_12_1" data-name="Composant 12 – 1" transform="translate(9 9)">
    <g transform="matrix(1, 0, 0, 1, -9, -9)" filter="url(#delete-svgrepo-com)">
      <path id="delete-svgrepo-com-3" data-name="delete-svgrepo-com" d="M363.75,623.18H100.659c-36.325,0-65.773-31-65.773-69.242V242.348c0-19.121,14.724-34.621,32.886-34.621H396.637c18.163,0,32.886,15.5,32.886,34.621v311.59C429.523,592.179,400.076,623.18,363.75,623.18Z" transform="translate(-25.89 313.01)" fill="#d83b00"/>
    </g>
    <g transform="matrix(1, 0, 0, 1, -9, -9)" filter="url(#delete-svgrepo-com-2)">
      <path id="delete-svgrepo-com-4" data-name="delete-svgrepo-com" d="M466.947,99.2a33.138,33.138,0,0,1-33.21,33.066H35.21a33.066,33.066,0,1,1,0-66.131h99.631V33.066A33.138,33.138,0,0,1,168.052,0H300.894A33.138,33.138,0,0,1,334.1,33.066V66.131h99.631A33.138,33.138,0,0,1,466.947,99.2Z" transform="translate(137.28 7.59) rotate(45)" fill="#d83b00"/>
    </g>
  </g>
</svg>
