<svg xmlns="http://www.w3.org/2000/svg" width="43.512" height="43.512" viewBox="0 0 43.512 43.512">
  <g id="dashboard-svgrepo-com" transform="translate(-3.25 -3.25)">
    <path id="Tracé_84" data-name="Tracé 84" d="M29.592,4.728c-.728.728-.728,1.9-.728,4.245s0,3.516.728,4.245,1.9.728,4.245.728H38.81c2.344,0,3.516,0,4.245-.728s.728-1.9.728-4.245,0-3.516-.728-4.245S41.154,4,38.81,4H33.837C31.493,4,30.321,4,29.592,4.728ZM4.728,34.565C4,35.293,4,36.465,4,38.81s0,3.516.728,4.245,1.9.728,4.245.728h4.973c2.344,0,3.516,0,4.245-.728s.728-1.9.728-4.245,0-3.516-.728-4.245-1.9-.728-4.245-.728H8.973C6.629,33.837,5.457,33.837,4.728,34.565Zm24.136-5.7c0-2.344,0-3.516.728-4.245s1.9-.728,4.245-.728H38.81c2.344,0,3.516,0,4.245.728s.728,1.9.728,4.245V38.81c0,2.344,0,3.516-.728,4.245s-1.9.728-4.245.728H33.837c-2.344,0-3.516,0-4.245-.728s-.728-1.9-.728-4.245ZM4.728,4.728C4,5.457,4,6.629,4,8.973v9.946c0,2.344,0,3.516.728,4.245s1.9.728,4.245.728h4.973c2.344,0,3.516,0,4.245-.728s.728-1.9.728-4.245V8.973c0-2.344,0-3.516-.728-4.245S16.29,4,13.946,4H8.973C6.629,4,5.457,4,4.728,4.728Z" transform="translate(1.115 1.115)" fill="current" fill-rule="evenodd"/>
    <path id="Tracé_85" data-name="Tracé 85" d="M7.162,7.162l.006,0,.026-.012a1.755,1.755,0,0,1,.414-.093,21.459,21.459,0,0,1,2.48-.074H15.06a21.459,21.459,0,0,1,2.48.074,1.755,1.755,0,0,1,.414.093l.026.012.006,0,0,.006s.007.013.012.026a1.756,1.756,0,0,1,.093.414,21.459,21.459,0,0,1,.074,2.48v9.946a21.457,21.457,0,0,1-.074,2.48,1.752,1.752,0,0,1-.093.414.278.278,0,0,1-.012.026l0,.006-.006,0-.026.012a1.749,1.749,0,0,1-.414.093,21.48,21.48,0,0,1-2.48.074H10.088a21.48,21.48,0,0,1-2.48-.074,1.749,1.749,0,0,1-.414-.093l-.026-.012-.006,0,0-.006a.277.277,0,0,1-.012-.026,1.752,1.752,0,0,1-.093-.414,21.456,21.456,0,0,1-.074-2.48V10.088a21.459,21.459,0,0,1,.074-2.48,1.756,1.756,0,0,1,.093-.414c.005-.013.009-.021.012-.026ZM9.976,3.25h5.2a23.09,23.09,0,0,1,2.865.108,4.308,4.308,0,0,1,2.586,1.167A4.308,4.308,0,0,1,21.79,7.111,23.067,23.067,0,0,1,21.9,9.976V20.145a23.064,23.064,0,0,1-.108,2.865,4.01,4.01,0,0,1-3.753,3.753,23.067,23.067,0,0,1-2.866.108h-5.2a23.067,23.067,0,0,1-2.866-.108A4.308,4.308,0,0,1,4.524,25.6,4.308,4.308,0,0,1,3.358,23.01a23.083,23.083,0,0,1-.108-2.865V9.976a23.085,23.085,0,0,1,.108-2.865A4.309,4.309,0,0,1,4.524,4.524,4.309,4.309,0,0,1,7.111,3.358,23.09,23.09,0,0,1,9.976,3.25ZM32.032,7.158l-.006,0,0,.006a.264.264,0,0,0-.012.026,1.749,1.749,0,0,0-.093.414,21.479,21.479,0,0,0-.074,2.48,21.479,21.479,0,0,0,.074,2.48,1.749,1.749,0,0,0,.093.414l.005.013.006.013,0,.006.006,0,.026.012a1.751,1.751,0,0,0,.414.093,21.455,21.455,0,0,0,2.48.074h4.973a21.455,21.455,0,0,0,2.48-.074,1.751,1.751,0,0,0,.414-.093l.026-.012.006,0,0-.006a.266.266,0,0,0,.012-.026,1.749,1.749,0,0,0,.093-.414,21.48,21.48,0,0,0,.074-2.48,21.48,21.48,0,0,0-.074-2.48,1.749,1.749,0,0,0-.093-.414.265.265,0,0,0-.012-.026l0-.006-.006,0-.026-.012a1.75,1.75,0,0,0-.414-.093,21.456,21.456,0,0,0-2.48-.074H34.952a21.456,21.456,0,0,0-2.48.074,1.75,1.75,0,0,0-.414.093ZM34.841,3.25h5.2a23.09,23.09,0,0,1,2.866.108,4.308,4.308,0,0,1,2.586,1.167,4.308,4.308,0,0,1,1.167,2.586,23.066,23.066,0,0,1,.108,2.865V10.2a23.066,23.066,0,0,1-.108,2.865,4.308,4.308,0,0,1-1.167,2.586A4.308,4.308,0,0,1,42.9,16.818a23.09,23.09,0,0,1-2.866.108h-5.2a23.09,23.09,0,0,1-2.866-.108,4.308,4.308,0,0,1-2.586-1.167,4.308,4.308,0,0,1-1.167-2.586,23.065,23.065,0,0,1-.108-2.865V9.976a23.066,23.066,0,0,1,.108-2.865,4.308,4.308,0,0,1,1.167-2.586,4.308,4.308,0,0,1,2.586-1.167A23.09,23.09,0,0,1,34.841,3.25Zm0,19.891h5.2a23.114,23.114,0,0,1,2.866.108A4.01,4.01,0,0,1,46.654,27a23.066,23.066,0,0,1,.108,2.866V40.036a23.064,23.064,0,0,1-.108,2.865A4.01,4.01,0,0,1,42.9,46.654a23.066,23.066,0,0,1-2.866.108h-5.2a23.066,23.066,0,0,1-2.866-.108A4.01,4.01,0,0,1,28.222,42.9a23.063,23.063,0,0,1-.108-2.865V29.868A23.065,23.065,0,0,1,28.222,27a4.01,4.01,0,0,1,3.753-3.753A23.114,23.114,0,0,1,34.841,23.141ZM32.032,27.05l-.006,0,0,.006a.241.241,0,0,0-.012.026,1.748,1.748,0,0,0-.093.414,21.477,21.477,0,0,0-.074,2.48v9.946a21.477,21.477,0,0,0,.074,2.48,1.745,1.745,0,0,0,.093.414.241.241,0,0,0,.012.026l0,.006.006,0,.026.012a1.745,1.745,0,0,0,.414.093,21.478,21.478,0,0,0,2.48.074h4.973a21.478,21.478,0,0,0,2.48-.074,1.745,1.745,0,0,0,.414-.093l.026-.012.006,0,0-.006a.242.242,0,0,0,.012-.026,1.745,1.745,0,0,0,.093-.414,21.478,21.478,0,0,0,.074-2.48V29.979a21.478,21.478,0,0,0-.074-2.48,1.748,1.748,0,0,0-.093-.414l-.008-.018,0-.007,0-.006-.006,0-.026-.012a1.745,1.745,0,0,0-.414-.093,21.477,21.477,0,0,0-2.48-.074H34.952a21.477,21.477,0,0,0-2.48.074,1.745,1.745,0,0,0-.414.093ZM7.168,37l-.006,0,0,.006a.277.277,0,0,0-.012.026,1.754,1.754,0,0,0-.093.414,21.456,21.456,0,0,0-.074,2.48,21.456,21.456,0,0,0,.074,2.48,1.75,1.75,0,0,0,.093.414.277.277,0,0,0,.012.026l0,.006.006,0,.026.012a1.75,1.75,0,0,0,.414.093,21.48,21.48,0,0,0,2.48.074H15.06a21.48,21.48,0,0,0,2.48-.074,1.749,1.749,0,0,0,.414-.093l.016-.007.01,0,.006,0,0-.006,0-.007L18,42.819a1.752,1.752,0,0,0,.093-.414,21.457,21.457,0,0,0,.074-2.48,21.457,21.457,0,0,0-.074-2.48A1.755,1.755,0,0,0,18,37.03.278.278,0,0,0,17.99,37l0-.006-.006,0-.026-.012a1.749,1.749,0,0,0-.414-.093,21.48,21.48,0,0,0-2.48-.074H10.088a21.48,21.48,0,0,0-2.48.074,1.75,1.75,0,0,0-.414.093Zm2.809-3.908h5.2a23.115,23.115,0,0,1,2.866.108,4.01,4.01,0,0,1,3.753,3.753,23.066,23.066,0,0,1,.108,2.866v.223A23.064,23.064,0,0,1,21.79,42.9a4.01,4.01,0,0,1-3.753,3.753,23.067,23.067,0,0,1-2.866.108h-5.2a23.066,23.066,0,0,1-2.865-.108,4.308,4.308,0,0,1-2.586-1.167A4.308,4.308,0,0,1,3.358,42.9a23.083,23.083,0,0,1-.108-2.865v-.223a23.085,23.085,0,0,1,.108-2.866,4.308,4.308,0,0,1,1.167-2.586,4.308,4.308,0,0,1,2.586-1.167A23.115,23.115,0,0,1,9.976,33.087Z" transform="translate(0 0)" fill="" fill-rule="evenodd"/>
  </g>
</svg>
