<svg xmlns="http://www.w3.org/2000/svg" width="45.056" height="46.012" viewBox="0 0 45.056 46.012">
  <g id="Groupe_84" data-name="Groupe 84" transform="translate(-1076.472 -286.494)">
    <path id="Tracé_115" data-name="Tracé 115" d="M49.6,25.69l-.865-1.185a2.839,2.839,0,0,1-.028-3.3l.846-1.194a2.831,2.831,0,0,0-.978-4.128l-1.288-.7a2.836,2.836,0,0,1-1.457-2.962l.244-1.448A2.823,2.823,0,0,0,43.4,7.486L41.933,7.42a2.824,2.824,0,0,1-2.6-2.04l-.4-1.41A2.82,2.82,0,0,0,35.1,2.164l-1.345.583a2.822,2.822,0,0,1-3.225-.715L29.549.941a2.83,2.83,0,0,0-4.241.028l-.959,1.11a2.833,2.833,0,0,1-3.206.762l-1.354-.555A2.83,2.83,0,0,0,15.98,4.157l-.386,1.41a2.785,2.785,0,0,1-2.548,2.087L11.58,7.74a2.818,2.818,0,0,0-2.614,3.329l.263,1.439a2.823,2.823,0,0,1-1.41,2.981L6.539,16.2a2.824,2.824,0,0,0-.912,4.137l.865,1.185a2.839,2.839,0,0,1,.028,3.3l-.846,1.194a2.831,2.831,0,0,0,.978,4.128l1.288.7A2.836,2.836,0,0,1,9.4,33.805l-.254,1.439a2.823,2.823,0,0,0,2.67,3.291l1.467.066a2.824,2.824,0,0,1,2.6,2.04l.4,1.41a2.82,2.82,0,0,0,3.836,1.805l1.345-.583a2.834,2.834,0,0,1,3.225.705l.978,1.091a2.83,2.83,0,0,0,4.241-.028l.959-1.11a2.833,2.833,0,0,1,3.206-.762l1.354.555a2.83,2.83,0,0,0,3.808-1.871l.386-1.41a2.843,2.843,0,0,1,2.567-2.078l1.467-.085a2.818,2.818,0,0,0,2.614-3.329L46,33.514a2.823,2.823,0,0,1,1.41-2.981l1.279-.715A2.822,2.822,0,0,0,49.6,25.69ZM27.612,37.867A14.848,14.848,0,1,1,42.459,23.02,14.848,14.848,0,0,1,27.612,37.867Z" transform="translate(1071.39 286.495)" fill="#1c1312"/>
    <path id="Tracé_116" data-name="Tracé 116" d="M178.63,194.372l-1.316-1.326a2.018,2.018,0,0,0-2.849-.009h0a2.018,2.018,0,0,0-.009,2.849l1.316,1.326,1.467,1.467a1.961,1.961,0,0,0,2.774.009l1.467-1.458,5.115-5.087a2.018,2.018,0,0,0,.009-2.849h0a2.018,2.018,0,0,0-2.849-.009Z" transform="translate(918.473 115.537)" fill="#1c1312"/>
  </g>
</svg>
