<svg xmlns="http://www.w3.org/2000/svg" xmlns:xlink="http://www.w3.org/1999/xlink" width="77.25" height="77.25" viewBox="0 0 77.25 77.25">
  <defs>
    <clipPath id="clip-path">
      <path id="Tracé_5" data-name="Tracé 5" d="M1288.55,66.246h77.25V143.5h-77.25Zm0,0"/>
    </clipPath>
  </defs>
  <g id="Groupe_6" data-name="Groupe 6" transform="translate(-1288.55 -66.246)" clip-path="url(#clip-path)">
    <path id="Tracé_4" data-name="Tracé 4" d="M1365.8,104.871q0,1.9-.18,3.785c-.13,1.262-.31,2.512-.56,3.75a35.946,35.946,0,0,1-.92,3.68c-.37,1.207-.79,2.4-1.28,3.566a36.3,36.3,0,0,1-1.62,3.426,35.612,35.612,0,0,1-1.95,3.254q-1.05,1.577-2.25,3.043c-.81.977-1.65,1.914-2.55,2.809a37.731,37.731,0,0,1-2.81,2.546c-.98.8-1.99,1.555-3.04,2.258s-2.14,1.352-3.25,1.95-2.26,1.136-3.43,1.617-2.36.91-3.57,1.277-2.44.676-3.68.922-2.49.434-3.75.559-2.51.183-3.78.183-2.53-.062-3.79-.183-2.51-.313-3.75-.559-2.46-.555-3.68-.922c-1.2-.367-2.39-.793-3.56-1.277s-2.31-1.024-3.43-1.617-2.2-1.247-3.25-1.95a38.974,38.974,0,0,1-5.85-4.8c-.9-.9-1.74-1.832-2.55-2.809s-1.55-1.992-2.26-3.043-1.35-2.137-1.95-3.254-1.13-2.258-1.62-3.426-.9-2.359-1.27-3.566a35.913,35.913,0,0,1-.92-3.68,36.294,36.294,0,0,1-.56-3.75c-.12-1.258-.19-2.519-.19-3.785s.07-2.527.19-3.785a36.636,36.636,0,0,1,.56-3.75,35.822,35.822,0,0,1,.92-3.676c.37-1.211.79-2.4,1.27-3.57s1.03-2.308,1.62-3.426,1.25-2.2,1.95-3.25,1.46-2.066,2.26-3.047,1.65-1.914,2.55-2.809a39.181,39.181,0,0,1,5.85-4.8c1.05-.7,2.14-1.355,3.25-1.949s2.26-1.137,3.43-1.621,2.36-.91,3.56-1.277c1.22-.367,2.44-.676,3.68-.922s2.49-.43,3.75-.555,2.52-.187,3.79-.187,2.53.063,3.78.188,2.51.309,3.75.555,2.47.555,3.68.922,2.4.793,3.57,1.277,2.31,1.023,3.43,1.621,2.2,1.246,3.25,1.949,2.06,1.453,3.04,2.258a36.9,36.9,0,0,1,2.81,2.543c.9.895,1.74,1.832,2.55,2.809s1.55,1.992,2.25,3.047a34.948,34.948,0,0,1,1.95,3.25,36.8,36.8,0,0,1,1.62,3.426,37.645,37.645,0,0,1,1.28,3.57,35.854,35.854,0,0,1,.92,3.676c.25,1.242.43,2.492.56,3.75S1365.8,103.605,1365.8,104.871Zm0,0" fill="current"/>
  </g>
</svg>
