<svg xmlns="http://www.w3.org/2000/svg" xmlns:xlink="http://www.w3.org/1999/xlink" width="94.142" height="94.142" viewBox="0 0 94.142 94.142">
  <defs>
    <filter id="key-svgrepo-com_2_" x="0" y="0" width="94.142" height="94.142" filterUnits="userSpaceOnUse">
      <feOffset dy="3" input="SourceAlpha"/>
      <feGaussianBlur stdDeviation="3" result="blur"/>
      <feFlood flood-opacity="0.161"/>
      <feComposite operator="in" in2="blur"/>
      <feComposite in="SourceGraphic"/>
    </filter>
  </defs>
  <g transform="matrix(1, 0, 0, 1, 0, 0)" filter="url(#key-svgrepo-com_2_)">
    <path id="key-svgrepo-com_2_2" data-name="key-svgrepo-com (2)" d="M49.153,7.668A18.1,18.1,0,0,0,20.5,29.179l-5.1,5.1a3.908,3.908,0,0,0-.274-.306L11.5,30.353A3.858,3.858,0,1,0,6.048,35.81l3.619,3.62a3.955,3.955,0,0,0,.306.274L8.59,41.086l-2-2a3.858,3.858,0,0,0-5.457,0,3.857,3.857,0,0,0,0,5.456L3.141,46.55A5.386,5.386,0,0,0,10.9,54.023L28.262,36.657A18.1,18.1,0,0,0,49.153,7.668ZM41.014,25.123a6.587,6.587,0,1,1,0-9.316A6.587,6.587,0,0,1,41.014,25.123Z" transform="translate(45.83 83.82) rotate(-135)" 
    fill="current"/>
  </g>
</svg>
