<?xml version="1.0" encoding="iso-8859-1"?>
<!-- Generator: Adobe Illustrator 17.1.0, SVG Export Plug-In . SVG Version: 6.00 Build 0)  -->
<!DOCTYPE svg PUBLIC "-//W3C//DTD SVG 1.1//EN" "http://www.w3.org/Graphics/SVG/1.1/DTD/svg11.dtd">
<svg version="1.1" id="Capa_1" xmlns="http://www.w3.org/2000/svg" xmlns:xlink="http://www.w3.org/1999/xlink" x="0px" y="0px"
	 viewBox="0 0 280.939 280.939" style="enable-background:new 0 0 280.939 280.939;" xml:space="preserve">
<path d="M271.686,183.26L261,178.83V8.226c0-4.143-3.505-7.448-7.647-7.448H72.593C68.45,0.778,65,4.084,65,8.226v60.552H7.371
	C3.229,68.778,0,71.737,0,75.88v180.76c0,4.143,3.229,7.139,7.371,7.139h180.76c0.211,0,0.418,0.166,0.625,0.149l5.113,8.789
	c2.718,4.625,7.664,7.445,12.927,7.445c0.687,0,1.378-0.025,2.071-0.121c6.007-0.836,10.919-5.195,12.448-11.064l10.809-41.483
	l39.56-16.525c5.596-2.338,9.27-7.814,9.254-13.878C280.923,191.026,277.294,185.569,271.686,183.26z M80,83.778h100v62.027
	l-39.462-16.375c-1.85-0.762-3.63-1.13-5.548-1.13c-4.257,0-8.341,1.813-11.252,5.167c-4.223,4.864-4.83,12.027-1.565,17.58
	l18.018,30.731H80V83.778z M246,15.778v156.877l-50-20.196V72.285c0-4.143-2.563-7.507-6.706-7.507H80v-49H246z M15,248.778v-165h50
	v105.209c0,4.143,3.45,7.791,7.593,7.791h76.415l30.949,52H15z"/>
<g>
</g>
<g>
</g>
<g>
</g>
<g>
</g>
<g>
</g>
<g>
</g>
<g>
</g>
<g>
</g>
<g>
</g>
<g>
</g>
<g>
</g>
<g>
</g>
<g>
</g>
<g>
</g>
<g>
</g>
</svg>
