<svg xmlns="http://www.w3.org/2000/svg" width="289.502" height="292.871" viewBox="0 0 289.502 292.871">
  <path id="random-svgrepo-com" d="M192.983,28.3V81.521H72.376C32.4,81.521,0,117.272,0,161.383A85.138,85.138,0,0,0,8.595,198.32l29.855-23.46a43.664,43.664,0,0,1-2.262-13.414c0-22.087,16.228-39.931,36.188-39.931H192.983v53.221l96.52-66.573V94.873Zm58.07,146.311a43.663,43.663,0,0,1,2.262,13.414c0,22.087-16.171,39.931-36.188,39.931H96.52V174.735L0,241.308V254.6l96.52,66.573V267.95H217.127c39.976,0,72.376-35.751,72.376-79.863a85.137,85.137,0,0,0-8.595-36.936Z" transform="translate(0 -28.3)" fill="#560a02"/>
</svg>
