<svg xmlns="http://www.w3.org/2000/svg" width="333.168" height="451.379" viewBox="0 0 333.168 451.379">
  <g id="selection-tool-svgrepo-com" transform="translate(-56.606 2.5)">
    <path id="Tracé_154" data-name="Tracé 154" d="M371.881,196.4l-163.3-44.138.008-129.541A22.715,22.715,0,0,0,185.876,0h-22.1a22.715,22.715,0,0,0-22.714,22.716l.012,199.07-35.131-24.9a22.716,22.716,0,0,0-31.982,5.858l-10.99,16.341a22.719,22.719,0,0,0,.138,25.555l77.959,113.271v65.713a22.712,22.712,0,0,0,22.708,22.713l163.388.039h.007a22.716,22.716,0,0,0,22.714-22.7L349.9,409.8l34.3-60.172a22.7,22.7,0,0,0,2.98-11.23l.1-120.479A22.717,22.717,0,0,0,371.881,196.4Z" fill="#ffd600" stroke="#560a02" stroke-width="5"/>
  </g>
</svg>
