<svg xmlns="http://www.w3.org/2000/svg" width="479.97" height="480" viewBox="0 0 479.97 480">
  <path id="ticket-sharp-svgrepo-com" d="M426.24,127.72,415.3,138.66a29.7,29.7,0,1,1-42-42l10.94-10.94L314.52,16l-88,88-4,12.09-12.09,4L16,314.52l69.76,69.76L96.7,373.34a29.7,29.7,0,1,1,42,42l-10.94,10.94L197.48,496l194.4-194.4,4-12.09,12.09-4,88-88Zm-208.56,5.43,21.87-21.87,33,33-21.88,21.87Zm43,43,21.88-21.88,32.52,32.52L293.2,208.67Zm42.56,42.56,21.88-21.88,32.52,32.52L335.8,251.28Zm75.57,75.56-33-33,21.87-21.88,33,33Z" transform="translate(-16 -16)" fill="#1c1312"/>
</svg>
