<svg xmlns="http://www.w3.org/2000/svg" width="32.726" height="32.726" viewBox="0 0 32.726 32.726">
  <g id="yes_or_no" data-name="yes or no" transform="translate(-1160.26 -934.137)">
    <path id="half-2-svgrepo-com" d="M17.24.877A16.363,16.363,0,1,0,33.6,17.24,16.363,16.363,0,0,0,17.24.877Zm0,2.347a14.016,14.016,0,0,0,0,28.032Z" transform="translate(1159.383 933.26)" fill="#1c1312" fill-rule="evenodd"/>
    <path id="Tracé_111" data-name="Tracé 111" d="M-4755.313,2107.48l-8.609,8.609" transform="translate(5944 -1161)" fill="none" stroke="#fff" stroke-linecap="round" stroke-width="2"/>
    <path id="Tracé_112" data-name="Tracé 112" d="M-4755.313,2107.48l-8.609,8.609" transform="translate(-927.403 -3808.833) rotate(-90)" fill="none" stroke="#fff" stroke-linecap="round" stroke-width="2"/>
    <path id="Tracé_113" data-name="Tracé 113" d="M-4755.985,2107.48l-7.938,7.938" transform="matrix(0.966, -0.259, 0.259, 0.966, 5222.957, -2320.988)" fill="#1c1312" stroke="#1c1312" stroke-linecap="round" stroke-width="2"/>
    <path id="Tracé_114" data-name="Tracé 114" d="M5.29,0,0,2.34" transform="matrix(-0.259, -0.966, 0.966, -0.259, 1166.611, 955.949)" fill="#1c1312" stroke="#1c1312" stroke-linecap="round" stroke-width="2"/>
  </g>
</svg>
